<mxfile host="app.diagrams.net" modified="2024-03-05T14:08:29.073Z" agent="Mozilla/5.0 (Windows NT 10.0; Win64; x64) AppleWebKit/537.36 (KHTML, like Gecko) Chrome/122.0.0.0 Safari/537.36" etag="A4uFNGtA_y0nJBfmmkZ-" version="24.0.1" type="device">
  <diagram id="C5RBs43oDa-KdzZeNtuy" name="Page-1">
    <mxGraphModel dx="1358" dy="1768" grid="1" gridSize="10" guides="1" tooltips="1" connect="1" arrows="1" fold="1" page="1" pageScale="1" pageWidth="827" pageHeight="1169" math="0" shadow="0">
      <root>
        <mxCell id="WIyWlLk6GJQsqaUBKTNV-0" />
        <mxCell id="WIyWlLk6GJQsqaUBKTNV-1" parent="WIyWlLk6GJQsqaUBKTNV-0" />
        <mxCell id="Axehlq3SmO633M4D_aJs-21" style="edgeStyle=orthogonalEdgeStyle;rounded=0;orthogonalLoop=1;jettySize=auto;html=1;exitX=0.5;exitY=1;exitDx=0;exitDy=0;entryX=0.75;entryY=0;entryDx=0;entryDy=0;" edge="1" parent="WIyWlLk6GJQsqaUBKTNV-1" source="WIyWlLk6GJQsqaUBKTNV-3" target="Axehlq3SmO633M4D_aJs-7">
          <mxGeometry relative="1" as="geometry" />
        </mxCell>
        <mxCell id="WIyWlLk6GJQsqaUBKTNV-3" value="tournament planning" style="rounded=1;whiteSpace=wrap;html=1;fontSize=12;glass=0;strokeWidth=1;shadow=0;" parent="WIyWlLk6GJQsqaUBKTNV-1" vertex="1">
          <mxGeometry x="414" y="50" width="120" height="40" as="geometry" />
        </mxCell>
        <mxCell id="Axehlq3SmO633M4D_aJs-0" value="match planning" style="rounded=1;whiteSpace=wrap;html=1;fontSize=12;glass=0;strokeWidth=1;shadow=0;" vertex="1" parent="WIyWlLk6GJQsqaUBKTNV-1">
          <mxGeometry x="170" y="50" width="120" height="40" as="geometry" />
        </mxCell>
        <mxCell id="Axehlq3SmO633M4D_aJs-37" style="edgeStyle=orthogonalEdgeStyle;rounded=0;orthogonalLoop=1;jettySize=auto;html=1;exitX=0.5;exitY=1;exitDx=0;exitDy=0;entryX=0.5;entryY=0;entryDx=0;entryDy=0;" edge="1" parent="WIyWlLk6GJQsqaUBKTNV-1" source="Axehlq3SmO633M4D_aJs-2" target="Axehlq3SmO633M4D_aJs-14">
          <mxGeometry relative="1" as="geometry" />
        </mxCell>
        <mxCell id="Axehlq3SmO633M4D_aJs-39" style="edgeStyle=orthogonalEdgeStyle;rounded=0;orthogonalLoop=1;jettySize=auto;html=1;exitX=0;exitY=0.5;exitDx=0;exitDy=0;entryX=0;entryY=0.5;entryDx=0;entryDy=0;" edge="1" parent="WIyWlLk6GJQsqaUBKTNV-1" source="Axehlq3SmO633M4D_aJs-2" target="Axehlq3SmO633M4D_aJs-7">
          <mxGeometry relative="1" as="geometry">
            <Array as="points">
              <mxPoint x="100" y="730" />
              <mxPoint x="100" y="160" />
            </Array>
          </mxGeometry>
        </mxCell>
        <mxCell id="Axehlq3SmO633M4D_aJs-2" value="check for more&lt;div&gt;match&lt;/div&gt;" style="rounded=1;whiteSpace=wrap;html=1;fontSize=12;glass=0;strokeWidth=1;shadow=0;" vertex="1" parent="WIyWlLk6GJQsqaUBKTNV-1">
          <mxGeometry x="300" y="710" width="120" height="40" as="geometry" />
        </mxCell>
        <mxCell id="Axehlq3SmO633M4D_aJs-33" style="edgeStyle=orthogonalEdgeStyle;rounded=0;orthogonalLoop=1;jettySize=auto;html=1;exitX=0.5;exitY=1;exitDx=0;exitDy=0;entryX=0.5;entryY=0;entryDx=0;entryDy=0;" edge="1" parent="WIyWlLk6GJQsqaUBKTNV-1" source="Axehlq3SmO633M4D_aJs-3" target="Axehlq3SmO633M4D_aJs-5">
          <mxGeometry relative="1" as="geometry" />
        </mxCell>
        <mxCell id="Axehlq3SmO633M4D_aJs-3" value="verified" style="rounded=1;whiteSpace=wrap;html=1;fontSize=12;glass=0;strokeWidth=1;shadow=0;" vertex="1" parent="WIyWlLk6GJQsqaUBKTNV-1">
          <mxGeometry x="300" y="545" width="120" height="40" as="geometry" />
        </mxCell>
        <mxCell id="Axehlq3SmO633M4D_aJs-31" style="edgeStyle=orthogonalEdgeStyle;rounded=0;orthogonalLoop=1;jettySize=auto;html=1;exitX=0.5;exitY=1;exitDx=0;exitDy=0;entryX=0.5;entryY=0;entryDx=0;entryDy=0;" edge="1" parent="WIyWlLk6GJQsqaUBKTNV-1" source="Axehlq3SmO633M4D_aJs-4" target="Axehlq3SmO633M4D_aJs-3">
          <mxGeometry relative="1" as="geometry" />
        </mxCell>
        <mxCell id="Axehlq3SmO633M4D_aJs-4" value="completed" style="rounded=1;whiteSpace=wrap;html=1;fontSize=12;glass=0;strokeWidth=1;shadow=0;" vertex="1" parent="WIyWlLk6GJQsqaUBKTNV-1">
          <mxGeometry x="300" y="470" width="120" height="40" as="geometry" />
        </mxCell>
        <mxCell id="Axehlq3SmO633M4D_aJs-35" style="edgeStyle=orthogonalEdgeStyle;rounded=0;orthogonalLoop=1;jettySize=auto;html=1;exitX=0.5;exitY=1;exitDx=0;exitDy=0;entryX=0.5;entryY=0;entryDx=0;entryDy=0;" edge="1" parent="WIyWlLk6GJQsqaUBKTNV-1" source="Axehlq3SmO633M4D_aJs-5" target="Axehlq3SmO633M4D_aJs-2">
          <mxGeometry relative="1" as="geometry" />
        </mxCell>
        <mxCell id="Axehlq3SmO633M4D_aJs-5" value="update data" style="rounded=1;whiteSpace=wrap;html=1;fontSize=12;glass=0;strokeWidth=1;shadow=0;" vertex="1" parent="WIyWlLk6GJQsqaUBKTNV-1">
          <mxGeometry x="300" y="620" width="120" height="40" as="geometry" />
        </mxCell>
        <mxCell id="Axehlq3SmO633M4D_aJs-25" style="edgeStyle=orthogonalEdgeStyle;rounded=0;orthogonalLoop=1;jettySize=auto;html=1;exitX=0.5;exitY=1;exitDx=0;exitDy=0;entryX=0.5;entryY=0;entryDx=0;entryDy=0;" edge="1" parent="WIyWlLk6GJQsqaUBKTNV-1" source="Axehlq3SmO633M4D_aJs-6" target="Axehlq3SmO633M4D_aJs-9">
          <mxGeometry relative="1" as="geometry" />
        </mxCell>
        <mxCell id="Axehlq3SmO633M4D_aJs-29" style="edgeStyle=orthogonalEdgeStyle;rounded=0;orthogonalLoop=1;jettySize=auto;html=1;exitX=1;exitY=0.5;exitDx=0;exitDy=0;entryX=1;entryY=0.5;entryDx=0;entryDy=0;" edge="1" parent="WIyWlLk6GJQsqaUBKTNV-1" source="Axehlq3SmO633M4D_aJs-6" target="Axehlq3SmO633M4D_aJs-4">
          <mxGeometry relative="1" as="geometry">
            <Array as="points">
              <mxPoint x="580" y="330" />
              <mxPoint x="580" y="490" />
            </Array>
          </mxGeometry>
        </mxCell>
        <mxCell id="Axehlq3SmO633M4D_aJs-6" value="InProgress&amp;nbsp;" style="rounded=1;whiteSpace=wrap;html=1;fontSize=12;glass=0;strokeWidth=1;shadow=0;" vertex="1" parent="WIyWlLk6GJQsqaUBKTNV-1">
          <mxGeometry x="300" y="310" width="120" height="40" as="geometry" />
        </mxCell>
        <mxCell id="Axehlq3SmO633M4D_aJs-19" style="edgeStyle=orthogonalEdgeStyle;rounded=0;orthogonalLoop=1;jettySize=auto;html=1;exitX=0.5;exitY=1;exitDx=0;exitDy=0;entryX=0.5;entryY=0;entryDx=0;entryDy=0;" edge="1" parent="WIyWlLk6GJQsqaUBKTNV-1" source="Axehlq3SmO633M4D_aJs-7" target="Axehlq3SmO633M4D_aJs-8">
          <mxGeometry relative="1" as="geometry" />
        </mxCell>
        <mxCell id="Axehlq3SmO633M4D_aJs-7" value="schedule" style="rounded=1;whiteSpace=wrap;html=1;fontSize=12;glass=0;strokeWidth=1;shadow=0;" vertex="1" parent="WIyWlLk6GJQsqaUBKTNV-1">
          <mxGeometry x="300" y="140" width="120" height="40" as="geometry" />
        </mxCell>
        <mxCell id="Axehlq3SmO633M4D_aJs-17" style="edgeStyle=orthogonalEdgeStyle;rounded=0;orthogonalLoop=1;jettySize=auto;html=1;exitX=0.5;exitY=1;exitDx=0;exitDy=0;entryX=0.5;entryY=0;entryDx=0;entryDy=0;" edge="1" parent="WIyWlLk6GJQsqaUBKTNV-1" source="Axehlq3SmO633M4D_aJs-8" target="Axehlq3SmO633M4D_aJs-6">
          <mxGeometry relative="1" as="geometry" />
        </mxCell>
        <mxCell id="Axehlq3SmO633M4D_aJs-8" value="pending" style="rounded=1;whiteSpace=wrap;html=1;fontSize=12;glass=0;strokeWidth=1;shadow=0;" vertex="1" parent="WIyWlLk6GJQsqaUBKTNV-1">
          <mxGeometry x="300" y="220" width="120" height="40" as="geometry" />
        </mxCell>
        <mxCell id="Axehlq3SmO633M4D_aJs-27" style="edgeStyle=orthogonalEdgeStyle;rounded=0;orthogonalLoop=1;jettySize=auto;html=1;exitX=0;exitY=0.5;exitDx=0;exitDy=0;entryX=0;entryY=0.5;entryDx=0;entryDy=0;" edge="1" parent="WIyWlLk6GJQsqaUBKTNV-1" source="Axehlq3SmO633M4D_aJs-9" target="Axehlq3SmO633M4D_aJs-6">
          <mxGeometry relative="1" as="geometry">
            <Array as="points">
              <mxPoint x="260" y="410" />
              <mxPoint x="260" y="330" />
            </Array>
          </mxGeometry>
        </mxCell>
        <mxCell id="Axehlq3SmO633M4D_aJs-9" value="paused" style="rounded=1;whiteSpace=wrap;html=1;fontSize=12;glass=0;strokeWidth=1;shadow=0;" vertex="1" parent="WIyWlLk6GJQsqaUBKTNV-1">
          <mxGeometry x="300" y="390" width="120" height="40" as="geometry" />
        </mxCell>
        <mxCell id="Axehlq3SmO633M4D_aJs-52" style="edgeStyle=orthogonalEdgeStyle;rounded=0;orthogonalLoop=1;jettySize=auto;html=1;exitX=0.5;exitY=1;exitDx=0;exitDy=0;entryX=0.5;entryY=0;entryDx=0;entryDy=0;" edge="1" parent="WIyWlLk6GJQsqaUBKTNV-1" source="Axehlq3SmO633M4D_aJs-12" target="Axehlq3SmO633M4D_aJs-51">
          <mxGeometry relative="1" as="geometry" />
        </mxCell>
        <mxCell id="Axehlq3SmO633M4D_aJs-12" value="Archived" style="rounded=1;whiteSpace=wrap;html=1;fontSize=12;glass=0;strokeWidth=1;shadow=0;" vertex="1" parent="WIyWlLk6GJQsqaUBKTNV-1">
          <mxGeometry x="300" y="890" width="120" height="40" as="geometry" />
        </mxCell>
        <mxCell id="Axehlq3SmO633M4D_aJs-41" style="edgeStyle=orthogonalEdgeStyle;rounded=0;orthogonalLoop=1;jettySize=auto;html=1;exitX=0.5;exitY=1;exitDx=0;exitDy=0;entryX=0.5;entryY=0;entryDx=0;entryDy=0;" edge="1" parent="WIyWlLk6GJQsqaUBKTNV-1" source="Axehlq3SmO633M4D_aJs-14" target="Axehlq3SmO633M4D_aJs-12">
          <mxGeometry relative="1" as="geometry" />
        </mxCell>
        <mxCell id="Axehlq3SmO633M4D_aJs-14" value="tournament wrap-up" style="rounded=1;whiteSpace=wrap;html=1;fontSize=12;glass=0;strokeWidth=1;shadow=0;" vertex="1" parent="WIyWlLk6GJQsqaUBKTNV-1">
          <mxGeometry x="300" y="810" width="120" height="40" as="geometry" />
        </mxCell>
        <mxCell id="Axehlq3SmO633M4D_aJs-18" value="match creation" style="text;html=1;align=center;verticalAlign=middle;resizable=0;points=[];autosize=1;strokeColor=none;fillColor=none;" vertex="1" parent="WIyWlLk6GJQsqaUBKTNV-1">
          <mxGeometry x="230" y="110" width="100" height="30" as="geometry" />
        </mxCell>
        <mxCell id="Axehlq3SmO633M4D_aJs-20" style="edgeStyle=orthogonalEdgeStyle;rounded=0;orthogonalLoop=1;jettySize=auto;html=1;exitX=0.5;exitY=1;exitDx=0;exitDy=0;entryX=0.323;entryY=-0.125;entryDx=0;entryDy=0;entryPerimeter=0;" edge="1" parent="WIyWlLk6GJQsqaUBKTNV-1" source="Axehlq3SmO633M4D_aJs-0" target="Axehlq3SmO633M4D_aJs-7">
          <mxGeometry relative="1" as="geometry" />
        </mxCell>
        <mxCell id="Axehlq3SmO633M4D_aJs-23" value="confirming details" style="text;html=1;align=center;verticalAlign=middle;resizable=0;points=[];autosize=1;strokeColor=none;fillColor=none;" vertex="1" parent="WIyWlLk6GJQsqaUBKTNV-1">
          <mxGeometry x="354" y="180" width="120" height="30" as="geometry" />
        </mxCell>
        <mxCell id="Axehlq3SmO633M4D_aJs-24" value="starting the match" style="text;html=1;align=center;verticalAlign=middle;resizable=0;points=[];autosize=1;strokeColor=none;fillColor=none;" vertex="1" parent="WIyWlLk6GJQsqaUBKTNV-1">
          <mxGeometry x="354" y="268" width="120" height="30" as="geometry" />
        </mxCell>
        <mxCell id="Axehlq3SmO633M4D_aJs-26" value="pausing the match(injury or weather)" style="text;html=1;align=center;verticalAlign=middle;resizable=0;points=[];autosize=1;strokeColor=none;fillColor=none;" vertex="1" parent="WIyWlLk6GJQsqaUBKTNV-1">
          <mxGeometry x="354" y="350" width="220" height="30" as="geometry" />
        </mxCell>
        <mxCell id="Axehlq3SmO633M4D_aJs-28" value="Resuming the&lt;div&gt;match&lt;/div&gt;" style="text;html=1;align=center;verticalAlign=middle;resizable=0;points=[];autosize=1;strokeColor=none;fillColor=none;" vertex="1" parent="WIyWlLk6GJQsqaUBKTNV-1">
          <mxGeometry x="170" y="353" width="100" height="40" as="geometry" />
        </mxCell>
        <mxCell id="Axehlq3SmO633M4D_aJs-30" value="completing the&lt;div&gt;match&lt;/div&gt;" style="text;html=1;align=center;verticalAlign=middle;resizable=0;points=[];autosize=1;strokeColor=none;fillColor=none;" vertex="1" parent="WIyWlLk6GJQsqaUBKTNV-1">
          <mxGeometry x="580" y="393" width="100" height="40" as="geometry" />
        </mxCell>
        <mxCell id="Axehlq3SmO633M4D_aJs-32" value="verifying result" style="text;html=1;align=center;verticalAlign=middle;resizable=0;points=[];autosize=1;strokeColor=none;fillColor=none;" vertex="1" parent="WIyWlLk6GJQsqaUBKTNV-1">
          <mxGeometry x="354" y="510" width="100" height="30" as="geometry" />
        </mxCell>
        <mxCell id="Axehlq3SmO633M4D_aJs-36" value="checking schedule of matches" style="text;html=1;align=center;verticalAlign=middle;resizable=0;points=[];autosize=1;strokeColor=none;fillColor=none;" vertex="1" parent="WIyWlLk6GJQsqaUBKTNV-1">
          <mxGeometry x="360" y="668" width="180" height="30" as="geometry" />
        </mxCell>
        <mxCell id="Axehlq3SmO633M4D_aJs-38" value="No" style="text;html=1;align=center;verticalAlign=middle;resizable=0;points=[];autosize=1;strokeColor=none;fillColor=none;" vertex="1" parent="WIyWlLk6GJQsqaUBKTNV-1">
          <mxGeometry x="354" y="768" width="40" height="30" as="geometry" />
        </mxCell>
        <mxCell id="Axehlq3SmO633M4D_aJs-40" value="Yes" style="text;html=1;align=center;verticalAlign=middle;resizable=0;points=[];autosize=1;strokeColor=none;fillColor=none;" vertex="1" parent="WIyWlLk6GJQsqaUBKTNV-1">
          <mxGeometry x="100" y="488" width="40" height="30" as="geometry" />
        </mxCell>
        <mxCell id="Axehlq3SmO633M4D_aJs-46" value="" style="ellipse;html=1;shape=startState;fillColor=#000000;strokeColor=#ff0000;" vertex="1" parent="WIyWlLk6GJQsqaUBKTNV-1">
          <mxGeometry x="345" y="-140" width="30" height="30" as="geometry" />
        </mxCell>
        <mxCell id="Axehlq3SmO633M4D_aJs-47" value="" style="edgeStyle=orthogonalEdgeStyle;html=1;verticalAlign=bottom;endArrow=open;endSize=8;strokeColor=#ff0000;rounded=0;entryX=0.5;entryY=0;entryDx=0;entryDy=0;entryPerimeter=0;" edge="1" source="Axehlq3SmO633M4D_aJs-46" parent="WIyWlLk6GJQsqaUBKTNV-1" target="Axehlq3SmO633M4D_aJs-57">
          <mxGeometry relative="1" as="geometry">
            <mxPoint x="374" y="-155" as="targetPoint" />
          </mxGeometry>
        </mxCell>
        <mxCell id="Axehlq3SmO633M4D_aJs-51" value="" style="ellipse;html=1;shape=endState;fillColor=#000000;strokeColor=#ff0000;" vertex="1" parent="WIyWlLk6GJQsqaUBKTNV-1">
          <mxGeometry x="345" y="1010" width="30" height="30" as="geometry" />
        </mxCell>
        <mxCell id="Axehlq3SmO633M4D_aJs-53" value="creation of time table" style="text;html=1;align=center;verticalAlign=middle;resizable=0;points=[];autosize=1;strokeColor=none;fillColor=none;" vertex="1" parent="WIyWlLk6GJQsqaUBKTNV-1">
          <mxGeometry x="394" y="110" width="130" height="30" as="geometry" />
        </mxCell>
        <mxCell id="Axehlq3SmO633M4D_aJs-59" style="edgeStyle=orthogonalEdgeStyle;rounded=0;orthogonalLoop=1;jettySize=auto;html=1;exitX=1;exitY=0.5;exitDx=0;exitDy=0;exitPerimeter=0;entryX=0.5;entryY=0;entryDx=0;entryDy=0;" edge="1" parent="WIyWlLk6GJQsqaUBKTNV-1" source="Axehlq3SmO633M4D_aJs-57" target="WIyWlLk6GJQsqaUBKTNV-3">
          <mxGeometry relative="1" as="geometry" />
        </mxCell>
        <mxCell id="Axehlq3SmO633M4D_aJs-57" value="" style="strokeWidth=2;html=1;shape=mxgraph.flowchart.decision;whiteSpace=wrap;" vertex="1" parent="WIyWlLk6GJQsqaUBKTNV-1">
          <mxGeometry x="320" y="-50" width="80" height="40" as="geometry" />
        </mxCell>
        <mxCell id="Axehlq3SmO633M4D_aJs-58" style="edgeStyle=orthogonalEdgeStyle;rounded=0;orthogonalLoop=1;jettySize=auto;html=1;exitX=0;exitY=0.5;exitDx=0;exitDy=0;exitPerimeter=0;entryX=0.572;entryY=-0.073;entryDx=0;entryDy=0;entryPerimeter=0;" edge="1" parent="WIyWlLk6GJQsqaUBKTNV-1" source="Axehlq3SmO633M4D_aJs-57" target="Axehlq3SmO633M4D_aJs-0">
          <mxGeometry relative="1" as="geometry" />
        </mxCell>
        <mxCell id="Axehlq3SmO633M4D_aJs-63" value="tournament" style="text;html=1;align=center;verticalAlign=middle;resizable=0;points=[];autosize=1;strokeColor=none;fillColor=none;" vertex="1" parent="WIyWlLk6GJQsqaUBKTNV-1">
          <mxGeometry x="474" width="80" height="30" as="geometry" />
        </mxCell>
        <mxCell id="Axehlq3SmO633M4D_aJs-64" value="match" style="text;html=1;align=center;verticalAlign=middle;resizable=0;points=[];autosize=1;strokeColor=none;fillColor=none;" vertex="1" parent="WIyWlLk6GJQsqaUBKTNV-1">
          <mxGeometry x="180" y="10" width="60" height="30" as="geometry" />
        </mxCell>
        <mxCell id="Axehlq3SmO633M4D_aJs-65" value="updating data" style="text;html=1;align=center;verticalAlign=middle;resizable=0;points=[];autosize=1;strokeColor=none;fillColor=none;" vertex="1" parent="WIyWlLk6GJQsqaUBKTNV-1">
          <mxGeometry x="354" y="585" width="100" height="30" as="geometry" />
        </mxCell>
      </root>
    </mxGraphModel>
  </diagram>
</mxfile>
